<?xml version="1.0" encoding="UTF-8" standalone="no"?>
<!DOCTYPE svg PUBLIC "-//W3C//DTD SVG 1.1//EN" "http://www.w3.org/Graphics/SVG/1.1/DTD/svg11.dtd">
<svg width="100%" height="100%" viewBox="0 0 800 240" version="1.1" xmlns="http://www.w3.org/2000/svg" xmlns:xlink="http://www.w3.org/1999/xlink" xml:space="preserve" xmlns:serif="http://www.serif.com/" style="fill-rule:evenodd;clip-rule:evenodd;">
    <g transform="matrix(0.640002,0,0,0.640002,-85.6047,-146.229)">
        <g transform="matrix(4.16667,0,0,4.16667,28.3312,111.814)">
            <path d="M52.639,47.304C52.639,47.304 58.108,58.037 64.707,59.665L78.942,59.665C78.942,59.665 78.401,55.804 79.86,51.267C79.86,51.267 82.561,44.913 82.028,42.889" style="fill:none;fill-rule:nonzero;stroke:white;stroke-width:0.78px;"/>
        </g>
        <g transform="matrix(4.16667,0,0,4.16667,28.3312,111.814)">
            <path d="M97.502,59.666C97.502,59.666 90.824,67.22 74.94,61.683L72.4,76.175C72.4,76.175 82.719,76.304 102.029,86.281" style="fill:none;fill-rule:nonzero;stroke:white;stroke-width:0.78px;"/>
        </g>
        <g transform="matrix(4.16667,0,0,4.16667,28.3312,111.814)">
            <path d="M38.867,65.207C38.867,65.207 44.324,64.03 48.615,65.76C48.615,65.76 58.877,68.484 60.683,66.506L66.131,69.782C66.131,69.782 63.084,79.941 49.508,78.182" style="fill:none;fill-rule:nonzero;stroke:white;stroke-width:0.78px;"/>
        </g>
        <g transform="matrix(4.16667,0,0,4.16667,28.3312,111.814)">
            <path d="M63.041,105.652C63.041,105.652 67.922,92.702 65.33,83.75L76.969,79.758C76.969,79.758 78.379,90.457 81.812,93.179C81.812,93.179 87.512,98.53 87.541,100.61" style="fill:none;fill-rule:nonzero;stroke:white;stroke-width:0.78px;"/>
        </g>
        <g transform="matrix(4.16667,0,0,4.16667,28.3312,111.814)">
            <path d="M85.934,69.571C82.897,67.295 78.588,67.912 76.313,70.949C74.036,73.988 74.653,78.296 77.692,80.572C80.729,82.848 85.038,82.231 87.313,79.194C89.59,76.155 88.973,71.847 85.934,69.571" style="fill:white;fill-rule:nonzero;"/>
        </g>
        <g transform="matrix(4.16667,0,0,4.16667,28.3312,111.814)">
            <path d="M85.934,69.571C82.897,67.295 78.588,67.912 76.313,70.949C74.036,73.988 74.653,78.296 77.692,80.572C80.729,82.848 85.038,82.231 87.313,79.194C89.59,76.155 88.973,71.847 85.934,69.571Z" style="fill:none;fill-rule:nonzero;stroke:white;stroke-width:0.78px;"/>
        </g>
        <g transform="matrix(4.16667,0,0,4.16667,28.3312,111.814)">
            <path d="M84.115,71.998C82.418,70.725 80.01,71.07 78.738,72.768C77.467,74.465 77.812,76.873 79.508,78.145C81.207,79.417 83.613,79.072 84.886,77.374C86.158,75.677 85.814,73.269 84.115,71.998" style="fill:white;fill-rule:nonzero;"/>
        </g>
        <g transform="matrix(4.16667,0,0,4.16667,28.3312,111.814)">
            <path d="M84.115,71.998C82.418,70.725 80.01,71.07 78.738,72.768C77.467,74.465 77.812,76.873 79.508,78.145C81.207,79.417 83.613,79.072 84.886,77.374C86.158,75.677 85.814,73.269 84.115,71.998Z" style="fill:none;fill-rule:nonzero;stroke:white;stroke-width:0.78px;"/>
        </g>
        <g transform="matrix(4.16667,0,0,4.16667,28.3312,111.814)">
            <path d="M69.869,76.468C66.832,74.191 62.523,74.808 60.248,77.846C57.971,80.884 58.588,85.193 61.625,87.469C64.664,89.745 68.971,89.128 71.248,86.091C73.525,83.052 72.908,78.744 69.869,76.468" style="fill:white;fill-rule:nonzero;"/>
        </g>
        <g transform="matrix(4.16667,0,0,4.16667,28.3312,111.814)">
            <path d="M69.869,76.468C66.832,74.191 62.523,74.808 60.248,77.846C57.971,80.884 58.588,85.193 61.625,87.469C64.664,89.745 68.971,89.128 71.248,86.091C73.525,83.052 72.908,78.744 69.869,76.468Z" style="fill:none;fill-rule:nonzero;stroke:white;stroke-width:0.78px;"/>
        </g>
        <g transform="matrix(4.16667,0,0,4.16667,28.3312,111.814)">
            <path d="M68.051,78.894C66.354,77.622 63.946,77.967 62.674,79.663C61.403,81.362 61.746,83.77 63.444,85.042C65.143,86.315 67.549,85.969 68.822,84.271C70.094,82.574 69.748,80.166 68.051,78.894" style="fill:white;fill-rule:nonzero;"/>
        </g>
        <g transform="matrix(4.16667,0,0,4.16667,28.3312,111.814)">
            <path d="M68.051,78.894C66.354,77.622 63.946,77.967 62.674,79.663C61.403,81.362 61.746,83.77 63.444,85.042C65.143,86.315 67.549,85.969 68.822,84.271C70.094,82.574 69.748,80.166 68.051,78.894Z" style="fill:none;fill-rule:nonzero;stroke:white;stroke-width:0.78px;"/>
        </g>
        <g transform="matrix(4.16667,0,0,4.16667,28.3312,111.814)">
            <path d="M73.293,57.597C70.254,55.321 65.947,55.938 63.67,58.977C61.395,62.014 62.012,66.322 65.049,68.598C68.086,70.875 72.395,70.257 74.672,67.22C76.947,64.181 76.33,59.873 73.293,57.597" style="fill:white;fill-rule:nonzero;"/>
        </g>
        <g transform="matrix(4.16667,0,0,4.16667,28.3312,111.814)">
            <path d="M73.293,57.597C70.254,55.321 65.947,55.938 63.67,58.977C61.395,62.014 62.012,66.322 65.049,68.598C68.086,70.875 72.395,70.257 74.672,67.22C76.947,64.181 76.33,59.873 73.293,57.597Z" style="fill:none;fill-rule:nonzero;stroke:white;stroke-width:0.78px;"/>
        </g>
        <g transform="matrix(4.16667,0,0,4.16667,28.3312,111.814)">
            <path d="M71.475,60.023C69.778,58.751 67.37,59.095 66.098,60.793C64.825,62.491 65.17,64.898 66.868,66.17C68.565,67.443 70.973,67.098 72.245,65.4C73.516,63.703 73.172,61.295 71.475,60.023" style="fill:white;fill-rule:nonzero;"/>
        </g>
        <g transform="matrix(4.16667,0,0,4.16667,28.3312,111.814)">
            <path d="M71.475,60.023C69.778,58.751 67.37,59.095 66.098,60.793C64.825,62.491 65.17,64.898 66.868,66.17C68.565,67.443 70.973,67.098 72.245,65.4C73.516,63.703 73.172,61.295 71.475,60.023Z" style="fill:none;fill-rule:nonzero;stroke:white;stroke-width:0.78px;"/>
        </g>
        <g transform="matrix(4.16667,0,0,4.16667,28.3312,111.814)">
            <path d="M73.051,73.652C69.209,70.773 68.428,65.324 71.307,61.483C74.186,57.641 79.635,56.86 83.477,59.739C87.319,62.618 88.1,68.067 85.221,71.908C82.342,75.75 76.893,76.531 73.051,73.652" style="fill:white;fill-rule:nonzero;"/>
        </g>
        <g transform="matrix(4.16667,0,0,4.16667,28.3312,111.814)">
            <path d="M73.051,73.652C69.209,70.773 68.428,65.324 71.307,61.483C74.186,57.641 79.635,56.86 83.477,59.739C87.319,62.618 88.1,68.067 85.221,71.908C82.342,75.75 76.893,76.531 73.051,73.652Z" style="fill:none;fill-rule:nonzero;stroke:white;stroke-width:0.78px;"/>
        </g>
        <g transform="matrix(4.16667,0,0,4.16667,28.3312,111.814)">
            <path d="M74.748,71.387C72.158,69.446 71.631,65.771 73.572,63.18C75.514,60.59 79.189,60.062 81.779,62.003C84.371,63.946 84.896,67.621 82.955,70.212C81.014,72.803 77.338,73.329 74.748,71.387" style="fill:white;fill-rule:nonzero;"/>
        </g>
        <g transform="matrix(4.16667,0,0,4.16667,28.3312,111.814)">
            <path d="M74.748,71.387C72.158,69.446 71.631,65.771 73.572,63.18C75.514,60.59 79.189,60.062 81.779,62.003C84.371,63.946 84.896,67.621 82.955,70.212C81.014,72.803 77.338,73.329 74.748,71.387Z" style="fill:none;fill-rule:nonzero;stroke:white;stroke-width:0.78px;"/>
        </g>
        <g transform="matrix(4.16667,0,0,4.16667,28.3312,111.814)">
            <path d="M68.512,86.623C72.711,89.77 78.666,88.917 81.813,84.718C84.959,80.519 84.106,74.563 79.907,71.416C75.707,68.269 69.752,69.123 66.606,73.322C63.459,77.521 64.313,83.477 68.512,86.623" style="fill:white;fill-rule:nonzero;"/>
        </g>
        <g transform="matrix(4.16667,0,0,4.16667,28.3312,111.814)">
            <path d="M68.512,86.623C72.711,89.77 78.666,88.917 81.813,84.718C84.959,80.519 84.106,74.563 79.907,71.416C75.707,68.269 69.752,69.123 66.606,73.322C63.459,77.521 64.313,83.477 68.512,86.623Z" style="fill:none;fill-rule:nonzero;stroke:white;stroke-width:0.78px;"/>
        </g>
        <g transform="matrix(4.16667,0,0,4.16667,28.3312,111.814)">
            <path d="M70.621,83.806C73.392,85.882 77.32,85.318 79.394,82.549C81.471,79.778 80.908,75.851 78.139,73.776C75.369,71.7 71.441,72.263 69.365,75.033C67.289,77.803 67.853,81.73 70.621,83.806" style="fill:white;fill-rule:nonzero;"/>
        </g>
        <g transform="matrix(4.16667,0,0,4.16667,28.3312,111.814)">
            <path d="M70.621,83.806C73.392,85.882 77.32,85.318 79.394,82.549C81.471,79.778 80.908,75.851 78.139,73.776C75.369,71.7 71.441,72.263 69.365,75.033C67.289,77.803 67.853,81.73 70.621,83.806Z" style="fill:none;fill-rule:nonzero;stroke:white;stroke-width:0.78px;"/>
        </g>
        <g transform="matrix(4.16667,0,0,4.16667,28.3312,111.814)">
            <path d="M58.643,78.575C54.803,75.697 54.022,70.248 56.901,66.406C59.78,62.564 65.229,61.783 69.069,64.662C72.911,67.541 73.692,72.99 70.813,76.832C67.934,80.674 62.487,81.454 58.643,78.575" style="fill:white;fill-rule:nonzero;"/>
        </g>
        <g transform="matrix(4.16667,0,0,4.16667,28.3312,111.814)">
            <path d="M58.643,78.575C54.803,75.697 54.022,70.248 56.901,66.406C59.78,62.564 65.229,61.783 69.069,64.662C72.911,67.541 73.692,72.99 70.813,76.832C67.934,80.674 62.487,81.454 58.643,78.575Z" style="fill:none;fill-rule:nonzero;stroke:white;stroke-width:0.78px;"/>
        </g>
        <g transform="matrix(4.16667,0,0,4.16667,28.3312,111.814)">
            <path d="M60.34,76.31C57.75,74.369 57.223,70.694 59.164,68.104C61.108,65.512 64.781,64.985 67.371,66.928C69.963,68.869 70.49,72.544 68.547,75.134C66.606,77.726 62.932,78.251 60.34,76.31" style="fill:white;fill-rule:nonzero;"/>
        </g>
        <g transform="matrix(4.16667,0,0,4.16667,28.3312,111.814)">
            <path d="M60.34,76.31C57.75,74.369 57.223,70.694 59.164,68.104C61.108,65.512 64.781,64.985 67.371,66.928C69.963,68.869 70.49,72.544 68.547,75.134C66.606,77.726 62.932,78.251 60.34,76.31Z" style="fill:none;fill-rule:nonzero;stroke:white;stroke-width:0.78px;"/>
        </g>
        <g transform="matrix(4.16667,0,0,4.16667,28.3312,111.814)">
            <path d="M64.697,86.234L70.271,93.814C72.64,100.32 74.912,98.115 74.912,98.115C77.709,96.686 77.97,92.75 77.97,92.75L79.619,82.927L85.429,75.174C89.634,75.728 92.191,75.049 92.191,75.049C95.902,74.542 101.287,70.04 101.287,70.04C104.326,67.6 98.935,66.526 98.935,66.526C96.898,65.85 86.299,66.667 86.299,66.667L86.299,62.322L73.011,50.407C69.801,46.566 66.019,49.901 66.019,49.901L55.162,56.415L46.916,56.883C41.48,57.094 39.904,58.256 39.904,58.256C38.785,59.315 35.238,59.73 35.238,59.73C28.115,60.655 26.549,63.005 26.549,63.005C22.797,67.026 28.707,67.153 28.707,67.153C32.74,67.638 38.867,70.292 38.867,70.292C46.359,74.362 55.222,72.177 55.222,72.177C55.222,72.177 73.99,63.809 56.853,77.83L47.365,78.551C47.365,78.551 35.84,81.588 31.73,87.932C31.73,87.932 29.853,90.254 30.748,92.309C30.748,92.309 31.82,95.795 37.179,92.22C37.179,92.22 42.095,89.004 48.615,90.523C48.615,90.523 59.695,92.22 62.465,86.234L64.697,86.234Z" style="fill:rgb(254,252,239);fill-rule:nonzero;stroke:rgb(42,40,40);stroke-width:0.78px;"/>
        </g>
        <g transform="matrix(4.16667,0,0,4.16667,28.3312,111.814)">
            <path d="M59.744,80.924C59.744,80.924 55.734,83.489 47.529,81.69C47.529,81.69 41.646,81.195 37.539,82.33C37.539,82.33 32.355,81.75 34.322,79.123C34.322,79.123 38.611,73.854 51.654,71.334C51.654,71.334 56.791,70.644 57.238,70.733L66.019,62.826C66.019,62.826 55.709,64.817 48.209,49.593C48.209,49.593 44.928,41.607 45.031,34.638C45.031,34.638 45.305,29.041 49.508,32.443C49.508,32.443 51.971,36.016 52.639,37.739C52.639,37.739 55.418,43.094 61.514,46.025C61.514,46.025 69.646,49.27 66.91,56.081L68.316,59.643L72.4,58.066C72.4,58.066 68.779,52.71 76.746,41.552C76.746,41.552 78.672,38.182 80.484,32.903C80.484,32.903 81.666,29.281 84.127,28.364C84.127,28.364 87.855,26.525 87.267,31.114C87.267,31.114 86.351,38.203 85.799,39.526C85.799,39.526 85.385,42.018 86.119,43.264C86.119,43.264 88.154,48.889 86.299,53.535C86.299,53.535 84.033,58.591 80.484,60.084L81.584,64.76L82.027,75.721C82.027,75.721 93.234,72.63 97.502,75.497L107.558,83.135C107.558,83.135 110.451,85.344 112.859,86.325C112.859,86.325 115.244,87.543 114.586,88.72C114.586,88.72 114.459,90.058 111.512,90.068C111.512,90.068 107.666,90.609 103.471,90.364C103.471,90.364 100.287,90.154 98.441,90.428C98.441,90.428 94.435,91.052 79.244,80.756L71.949,86.443C71.949,86.443 70.201,86.132 70.131,92.75C70.131,92.75 71.945,98.374 69.17,102.311C69.17,102.311 67.365,104.993 66.478,110.266C66.478,110.266 65.822,115.11 63.16,116.888C63.16,116.888 59.846,120.021 59.586,115.768C59.586,115.768 60.437,105.821 57.34,101.568C57.34,101.568 52.307,95.246 60.824,83.869L62.642,82.019L61.394,80.159L59.744,80.924Z" style="fill:rgb(251,250,245);fill-rule:nonzero;stroke:rgb(42,40,40);stroke-width:0.78px;"/>
        </g>
        <g transform="matrix(4.16667,0,0,4.16667,28.3312,111.814)">
            <path d="M76.045,62.61C76.045,62.61 87.301,53.156 95.834,52.586C95.834,52.586 103.02,51.648 106.195,49.152C106.195,49.152 110.391,46.416 112.561,48.501C112.561,48.501 114.047,49.365 111.457,52.133C111.457,52.133 109.022,54.528 105.928,58.066C105.928,58.066 98.727,71.238 78.941,68.328L77.971,76.937C77.971,76.937 82.363,83.892 87.022,86.716C87.022,86.716 90.914,91.465 91.297,96.131C91.297,96.131 91.99,101.537 94.516,104.652C94.516,104.652 97.574,110.417 96.135,111.445C96.135,111.445 92.957,114.142 88.389,107.827C88.389,107.827 85.186,103.983 80.647,100.599C80.647,100.599 74.277,97.214 74.94,80.778L76.045,62.61Z" style="fill:rgb(247,244,228);fill-rule:nonzero;stroke:rgb(42,40,40);stroke-width:0.78px;"/>
        </g>
        <g transform="matrix(4.16667,0,0,4.16667,28.3312,111.814)">
            <path d="M52.639,46.304C52.639,46.304 58.108,57.037 64.707,58.665L78.942,58.665C78.942,58.665 78.401,54.804 79.86,50.267C79.86,50.267 82.561,43.913 82.028,41.889" style="fill:none;fill-rule:nonzero;stroke:rgb(42,40,40);stroke-width:0.78px;"/>
        </g>
        <g transform="matrix(4.16667,0,0,4.16667,28.3312,111.814)">
            <path d="M97.502,58.666C97.502,58.666 90.824,66.22 74.94,60.683L72.4,75.175C72.4,75.175 82.719,75.304 102.029,85.281" style="fill:none;fill-rule:nonzero;stroke:rgb(42,40,40);stroke-width:0.78px;"/>
        </g>
        <g transform="matrix(4.16667,0,0,4.16667,28.3312,111.814)">
            <path d="M38.867,64.207C38.867,64.207 44.324,63.03 48.615,64.76C48.615,64.76 58.877,67.484 60.683,65.506L66.131,68.782C66.131,68.782 63.084,78.941 49.508,77.182" style="fill:none;fill-rule:nonzero;stroke:rgb(42,40,40);stroke-width:0.78px;"/>
        </g>
        <g transform="matrix(4.16667,0,0,4.16667,28.3312,111.814)">
            <path d="M63.041,104.652C63.041,104.652 67.922,91.702 65.33,82.75L76.969,78.758C76.969,78.758 78.379,89.457 81.812,92.179C81.812,92.179 87.512,97.53 87.541,99.61" style="fill:none;fill-rule:nonzero;stroke:rgb(42,40,40);stroke-width:0.78px;"/>
        </g>
        <g transform="matrix(4.16667,0,0,4.16667,28.3312,111.814)">
            <path d="M85.934,68.571C82.897,66.295 78.588,66.912 76.313,69.949C74.036,72.988 74.653,77.296 77.692,79.572C80.729,81.848 85.038,81.231 87.313,78.194C89.59,75.155 88.973,70.847 85.934,68.571" style="fill:rgb(252,247,179);fill-rule:nonzero;"/>
        </g>
        <g transform="matrix(4.16667,0,0,4.16667,28.3312,111.814)">
            <path d="M85.934,68.571C82.897,66.295 78.588,66.912 76.313,69.949C74.036,72.988 74.653,77.296 77.692,79.572C80.729,81.848 85.038,81.231 87.313,78.194C89.59,75.155 88.973,70.847 85.934,68.571Z" style="fill:none;fill-rule:nonzero;stroke:rgb(42,40,40);stroke-width:0.78px;"/>
        </g>
        <g transform="matrix(4.16667,0,0,4.16667,28.3312,111.814)">
            <path d="M84.115,70.998C82.418,69.725 80.01,70.07 78.738,71.768C77.467,73.465 77.812,75.873 79.508,77.145C81.207,78.417 83.613,78.072 84.886,76.374C86.158,74.677 85.814,72.269 84.115,70.998" style="fill:rgb(253,200,11);fill-rule:nonzero;"/>
        </g>
        <g transform="matrix(4.16667,0,0,4.16667,28.3312,111.814)">
            <path d="M84.115,70.998C82.418,69.725 80.01,70.07 78.738,71.768C77.467,73.465 77.812,75.873 79.508,77.145C81.207,78.417 83.613,78.072 84.886,76.374C86.158,74.677 85.814,72.269 84.115,70.998Z" style="fill:none;fill-rule:nonzero;stroke:rgb(42,40,40);stroke-width:0.78px;"/>
        </g>
        <g transform="matrix(4.16667,0,0,4.16667,28.3312,111.814)">
            <path d="M69.869,75.468C66.832,73.191 62.523,73.808 60.248,76.846C57.971,79.884 58.588,84.193 61.625,86.469C64.664,88.745 68.971,88.128 71.248,85.091C73.525,82.052 72.908,77.744 69.869,75.468" style="fill:rgb(252,247,179);fill-rule:nonzero;"/>
        </g>
        <g transform="matrix(4.16667,0,0,4.16667,28.3312,111.814)">
            <path d="M69.869,75.468C66.832,73.191 62.523,73.808 60.248,76.846C57.971,79.884 58.588,84.193 61.625,86.469C64.664,88.745 68.971,88.128 71.248,85.091C73.525,82.052 72.908,77.744 69.869,75.468Z" style="fill:none;fill-rule:nonzero;stroke:rgb(42,40,40);stroke-width:0.78px;"/>
        </g>
        <g transform="matrix(4.16667,0,0,4.16667,28.3312,111.814)">
            <path d="M68.051,77.894C66.354,76.622 63.946,76.967 62.674,78.663C61.403,80.362 61.746,82.77 63.444,84.042C65.143,85.315 67.549,84.969 68.822,83.271C70.094,81.574 69.748,79.166 68.051,77.894" style="fill:rgb(253,200,11);fill-rule:nonzero;"/>
        </g>
        <g transform="matrix(4.16667,0,0,4.16667,28.3312,111.814)">
            <path d="M68.051,77.894C66.354,76.622 63.946,76.967 62.674,78.663C61.403,80.362 61.746,82.77 63.444,84.042C65.143,85.315 67.549,84.969 68.822,83.271C70.094,81.574 69.748,79.166 68.051,77.894Z" style="fill:none;fill-rule:nonzero;stroke:rgb(42,40,40);stroke-width:0.78px;"/>
        </g>
        <g transform="matrix(4.16667,0,0,4.16667,28.3312,111.814)">
            <path d="M73.293,56.597C70.254,54.321 65.947,54.938 63.67,57.977C61.395,61.014 62.012,65.322 65.049,67.598C68.086,69.875 72.395,69.257 74.672,66.22C76.947,63.181 76.33,58.873 73.293,56.597" style="fill:rgb(252,247,179);fill-rule:nonzero;"/>
        </g>
        <g transform="matrix(4.16667,0,0,4.16667,28.3312,111.814)">
            <path d="M73.293,56.597C70.254,54.321 65.947,54.938 63.67,57.977C61.395,61.014 62.012,65.322 65.049,67.598C68.086,69.875 72.395,69.257 74.672,66.22C76.947,63.181 76.33,58.873 73.293,56.597Z" style="fill:none;fill-rule:nonzero;stroke:rgb(42,40,40);stroke-width:0.78px;"/>
        </g>
        <g transform="matrix(4.16667,0,0,4.16667,28.3312,111.814)">
            <path d="M71.475,59.023C69.778,57.751 67.37,58.095 66.098,59.793C64.825,61.491 65.17,63.898 66.868,65.17C68.565,66.443 70.973,66.098 72.245,64.4C73.516,62.703 73.172,60.295 71.475,59.023" style="fill:rgb(253,200,11);fill-rule:nonzero;"/>
        </g>
        <g transform="matrix(4.16667,0,0,4.16667,28.3312,111.814)">
            <path d="M71.475,59.023C69.778,57.751 67.37,58.095 66.098,59.793C64.825,61.491 65.17,63.898 66.868,65.17C68.565,66.443 70.973,66.098 72.245,64.4C73.516,62.703 73.172,60.295 71.475,59.023Z" style="fill:none;fill-rule:nonzero;stroke:rgb(42,40,40);stroke-width:0.78px;"/>
        </g>
        <g transform="matrix(4.16667,0,0,4.16667,28.3312,111.814)">
            <path d="M73.051,72.652C69.209,69.773 68.428,64.324 71.307,60.483C74.186,56.641 79.635,55.86 83.477,58.739C87.319,61.618 88.1,67.067 85.221,70.908C82.342,74.75 76.893,75.531 73.051,72.652" style="fill:rgb(252,247,179);fill-rule:nonzero;"/>
        </g>
        <g transform="matrix(4.16667,0,0,4.16667,28.3312,111.814)">
            <path d="M73.051,72.652C69.209,69.773 68.428,64.324 71.307,60.483C74.186,56.641 79.635,55.86 83.477,58.739C87.319,61.618 88.1,67.067 85.221,70.908C82.342,74.75 76.893,75.531 73.051,72.652Z" style="fill:none;fill-rule:nonzero;stroke:rgb(42,40,40);stroke-width:0.78px;"/>
        </g>
        <g transform="matrix(4.16667,0,0,4.16667,28.3312,111.814)">
            <path d="M74.748,70.387C72.158,68.446 71.631,64.771 73.572,62.18C75.514,59.59 79.189,59.062 81.779,61.003C84.371,62.946 84.896,66.621 82.955,69.212C81.014,71.803 77.338,72.329 74.748,70.387" style="fill:rgb(253,200,11);fill-rule:nonzero;"/>
        </g>
        <g transform="matrix(4.16667,0,0,4.16667,28.3312,111.814)">
            <path d="M74.748,70.387C72.158,68.446 71.631,64.771 73.572,62.18C75.514,59.59 79.189,59.062 81.779,61.003C84.371,62.946 84.896,66.621 82.955,69.212C81.014,71.803 77.338,72.329 74.748,70.387Z" style="fill:none;fill-rule:nonzero;stroke:rgb(42,40,40);stroke-width:0.78px;"/>
        </g>
        <g transform="matrix(4.16667,0,0,4.16667,28.3312,111.814)">
            <path d="M68.512,85.623C72.711,88.77 78.666,87.917 81.813,83.718C84.959,79.519 84.106,73.563 79.907,70.416C75.707,67.269 69.752,68.123 66.606,72.322C63.459,76.521 64.313,82.477 68.512,85.623" style="fill:rgb(252,247,179);fill-rule:nonzero;"/>
        </g>
        <g transform="matrix(4.16667,0,0,4.16667,28.3312,111.814)">
            <path d="M68.512,85.623C72.711,88.77 78.666,87.917 81.813,83.718C84.959,79.519 84.106,73.563 79.907,70.416C75.707,67.269 69.752,68.123 66.606,72.322C63.459,76.521 64.313,82.477 68.512,85.623Z" style="fill:none;fill-rule:nonzero;stroke:rgb(42,40,40);stroke-width:0.78px;"/>
        </g>
        <g transform="matrix(4.16667,0,0,4.16667,28.3312,111.814)">
            <path d="M70.621,82.806C73.392,84.882 77.32,84.318 79.394,81.549C81.471,78.778 80.908,74.851 78.139,72.776C75.369,70.7 71.441,71.263 69.365,74.033C67.289,76.803 67.853,80.73 70.621,82.806" style="fill:rgb(253,200,11);fill-rule:nonzero;"/>
        </g>
        <g transform="matrix(4.16667,0,0,4.16667,28.3312,111.814)">
            <path d="M70.621,82.806C73.392,84.882 77.32,84.318 79.394,81.549C81.471,78.778 80.908,74.851 78.139,72.776C75.369,70.7 71.441,71.263 69.365,74.033C67.289,76.803 67.853,80.73 70.621,82.806Z" style="fill:none;fill-rule:nonzero;stroke:rgb(42,40,40);stroke-width:0.78px;"/>
        </g>
        <g transform="matrix(4.16667,0,0,4.16667,28.3312,111.814)">
            <path d="M58.643,77.575C54.803,74.697 54.022,69.248 56.901,65.406C59.78,61.564 65.229,60.783 69.069,63.662C72.911,66.541 73.692,71.99 70.813,75.832C67.934,79.674 62.487,80.454 58.643,77.575" style="fill:rgb(252,247,179);fill-rule:nonzero;"/>
        </g>
        <g transform="matrix(4.16667,0,0,4.16667,28.3312,111.814)">
            <path d="M58.643,77.575C54.803,74.697 54.022,69.248 56.901,65.406C59.78,61.564 65.229,60.783 69.069,63.662C72.911,66.541 73.692,71.99 70.813,75.832C67.934,79.674 62.487,80.454 58.643,77.575Z" style="fill:none;fill-rule:nonzero;stroke:rgb(42,40,40);stroke-width:0.78px;"/>
        </g>
        <g transform="matrix(4.16667,0,0,4.16667,28.3312,111.814)">
            <path d="M60.34,75.31C57.75,73.369 57.223,69.694 59.164,67.104C61.108,64.512 64.781,63.985 67.371,65.928C69.963,67.869 70.49,71.544 68.547,74.134C66.606,76.726 62.932,77.251 60.34,75.31" style="fill:rgb(253,200,11);fill-rule:nonzero;"/>
        </g>
        <g transform="matrix(4.16667,0,0,4.16667,28.3312,111.814)">
            <path d="M60.34,75.31C57.75,73.369 57.223,69.694 59.164,67.104C61.108,64.512 64.781,63.985 67.371,65.928C69.963,67.869 70.49,71.544 68.547,74.134C66.606,76.726 62.932,77.251 60.34,75.31Z" style="fill:none;fill-rule:nonzero;stroke:rgb(42,40,40);stroke-width:0.78px;"/>
        </g>
    </g>
    <g transform="matrix(4.10818,0,0,4.10818,-2651.91,-660.137)">
        <g transform="matrix(1,0,0,1,720.965,182.867)">
            <path d="M0,14.079C-0.898,14.113 -0.628,13.52 -0.712,10.081C-0.712,7.811 0.22,-0.017 0.711,-0.017L7.387,-0.017C7.59,-0.017 8.2,-0.068 8.2,0.271C8.2,0.407 7.116,2.779 6.896,2.779C6.608,2.779 6.099,1.982 4.439,1.982C3.27,1.982 2.033,2.676 2.033,4.303C2.033,4.659 2.101,5.269 2.575,5.269C3.117,5.269 4.32,4.473 5.743,4.473C5.947,4.473 6.506,4.54 6.506,4.828C6.506,4.846 5.557,7.608 5.353,7.608C5.185,7.608 4.541,7.269 3.88,7.269C3.016,7.269 1.762,7.896 1.762,9.573C1.762,10.928 2.474,11.911 3.897,11.911C5.574,11.911 6.608,10.793 7.014,10.793C7.269,10.793 8.403,13.656 8.403,13.826C8.403,14.147 7.98,14.079 7.777,14.079L0,14.079Z" style="fill:rgb(40,40,40);fill-rule:nonzero;"/>
        </g>
        <g transform="matrix(1,0,0,1,733.016,189.289)">
            <path d="M0,1.236C0,5.048 1.118,5.489 2.067,5.489C2.982,5.489 4.693,4.624 4.693,1.575C4.693,-2.61 2.525,-4.44 1.423,-4.44C0.237,-4.44 0,-2.254 0,-1.187L0,1.236ZM-1.711,7.657C-2.135,7.657 -2.644,7.98 -2.644,1.626C-2.644,-6.744 -1.762,-6.439 -1.474,-6.439L1.406,-6.439C3.558,-6.439 7.438,-4.084 7.438,2.27C7.438,5.2 6.099,7.657 2.677,7.657L-1.711,7.657Z" style="fill:rgb(40,40,40);fill-rule:nonzero;"/>
        </g>
        <g transform="matrix(1,0,0,1,742.867,182.868)">
            <path d="M0,14.078C-0.424,14.078 -0.932,14.401 -0.932,8.047C-0.932,-0.323 -0.051,-0.018 0.237,-0.018L2.067,-0.018C2.287,-0.018 2.711,-0.069 2.711,0.253C2.711,0.423 1.812,3.252 1.812,6.522C1.812,10.86 2.66,13.655 2.66,13.892C2.66,14.061 2.558,14.078 2.406,14.078L0,14.078Z" style="fill:rgb(40,40,40);fill-rule:nonzero;"/>
        </g>
        <g transform="matrix(1,0,0,1,750.935,183.275)">
            <path d="M0,13.671C-0.322,13.671 -1.068,14.35 -1.068,9.435C-1.068,5.658 -0.322,3.251 -0.322,2.624C-0.322,2.116 -0.237,1.811 -0.661,1.811C-1.864,1.811 -3.982,3.76 -4.27,3.76C-4.423,3.76 -4.508,3.827 -4.508,3.353C-4.508,2.828 -4.05,0.727 -3.795,0.253C-3.627,-0.069 -1.339,-0.679 0.948,-0.679C3.676,-0.679 6.099,0.05 6.099,0.846C6.099,1.591 5.269,3.201 5.082,3.201C4.794,3.201 4.1,1.795 2.88,1.795C1.846,1.795 1.677,5.031 1.677,6.59C1.677,10.944 2.609,13.078 2.609,13.383C2.609,13.757 1.999,13.671 1.779,13.671L0,13.671Z" style="fill:rgb(40,40,40);fill-rule:nonzero;"/>
        </g>
        <g transform="matrix(1,0,0,1,759.023,182.868)">
            <path d="M0,14.078C-0.424,14.078 -0.932,14.401 -0.932,8.047C-0.932,-0.323 -0.051,-0.018 0.237,-0.018L2.066,-0.018C2.287,-0.018 2.711,-0.069 2.711,0.253C2.711,0.423 1.812,3.252 1.812,6.522C1.812,10.86 2.659,13.655 2.659,13.892C2.659,14.061 2.558,14.078 2.405,14.078L0,14.078Z" style="fill:rgb(40,40,40);fill-rule:nonzero;"/>
        </g>
        <g transform="matrix(1,0,0,1,771.478,188.357)">
            <path d="M0,3.083C0,-0.661 -1.728,-3.016 -2.864,-3.016C-3.998,-3.016 -5.726,-0.661 -5.726,3.083C-5.726,5.066 -4.659,5.828 -2.864,5.828C-1.067,5.828 0,5.066 0,3.083M-3.71,8.844C-7.133,8.844 -8.471,6.387 -8.471,3.456C-8.471,-0.898 -6.031,-5.761 -2.864,-5.761C0.305,-5.761 2.745,-0.898 2.745,3.456C2.745,6.387 1.407,8.844 -2.016,8.844L-3.71,8.844Z" style="fill:rgb(40,40,40);fill-rule:nonzero;"/>
        </g>
        <g transform="matrix(1,0,0,1,783.108,182.868)">
            <path d="M0,14.078C-1.169,14.078 -0.119,13.028 -2.762,7.674C-2.982,7.216 -4.473,4.37 -5.016,4.37C-5.439,4.37 -5.32,6.217 -5.32,6.556C-5.32,11.334 -4.626,13.062 -4.626,13.926C-4.626,14.146 -4.948,14.078 -5.101,14.078L-6.676,14.078C-7.1,14.078 -7.608,14.401 -7.608,8.047C-7.608,-0.323 -6.727,-0.018 -6.439,-0.018L-5.101,-0.018C-4.456,-0.018 -3.169,1.337 0,7.2C0.051,7.284 0.135,7.505 0.288,7.505C0.457,7.505 0.424,6.777 0.424,6.539C0.424,3.371 -0.441,0.558 -0.441,0.168C-0.441,-0.069 -0.068,-0.018 0.254,-0.018L1.542,-0.018C1.914,-0.018 2.711,-0.323 2.711,8.047C2.711,14.401 2.203,14.078 1.779,14.078L0,14.078Z" style="fill:rgb(40,40,40);fill-rule:nonzero;"/>
        </g>
        <g transform="matrix(1,0,0,1,796.095,183.275)">
            <path d="M0,13.671C-0.322,13.671 -1.068,14.35 -1.068,9.435C-1.068,5.658 -0.322,3.251 -0.322,2.624C-0.322,2.116 -0.238,1.811 -0.661,1.811C-1.864,1.811 -3.982,3.76 -4.27,3.76C-4.422,3.76 -4.507,3.827 -4.507,3.353C-4.507,2.828 -4.05,0.727 -3.795,0.253C-3.626,-0.069 -1.339,-0.679 0.949,-0.679C3.677,-0.679 6.099,0.05 6.099,0.846C6.099,1.591 5.269,3.201 5.083,3.201C4.795,3.201 4.1,1.795 2.88,1.795C1.846,1.795 1.677,5.031 1.677,6.59C1.677,10.944 2.609,13.078 2.609,13.383C2.609,13.757 1.999,13.671 1.779,13.671L0,13.671Z" style="fill:rgb(40,40,40);fill-rule:nonzero;"/>
        </g>
        <g transform="matrix(1,0,0,1,804.183,182.868)">
            <path d="M0,14.078C-0.423,14.078 -0.932,14.401 -0.932,8.047C-0.932,-0.323 -0.051,-0.018 0.237,-0.018L2.067,-0.018C2.287,-0.018 2.711,-0.069 2.711,0.253C2.711,0.423 1.812,3.252 1.812,6.522C1.812,10.86 2.66,13.655 2.66,13.892C2.66,14.061 2.558,14.078 2.406,14.078L0,14.078Z" style="fill:rgb(40,40,40);fill-rule:nonzero;"/>
        </g>
        <g transform="matrix(1,0,0,1,815.453,193.507)">
            <path d="M0,-7.201C0,-8.268 -1,-8.659 -1.915,-8.659C-3.457,-8.659 -4.134,-8.099 -4.118,-5.168C-4.118,-4.812 -4.1,-4.134 -3.592,-4.134C-3.016,-4.134 0,-5.642 0,-7.201M-1.203,-10.657C1.948,-10.657 2.745,-8.93 2.745,-7.489C2.745,-4.778 0.203,-3.948 0.203,-3.473C0.203,-2.999 3.253,-0.78 3.253,3.219C3.253,3.405 3.185,3.439 2.829,3.439L0.915,3.439C0.61,3.439 0.084,3.49 0.084,3.219C0.084,1.305 -1.271,-2.135 -2.253,-2.135C-2.762,-2.135 -3.998,-1.44 -3.998,-0.492C-3.998,0.796 -3.372,3.117 -3.372,3.236C-3.372,3.524 -3.795,3.439 -3.965,3.439L-5.93,3.439C-6.354,3.439 -6.862,3.761 -6.862,-2.592C-6.862,-10.962 -5.981,-10.657 -5.693,-10.657L-1.203,-10.657Z" style="fill:rgb(40,40,40);fill-rule:nonzero;"/>
        </g>
        <g transform="matrix(1,0,0,1,827.895,188.357)">
            <path d="M0,3.083C0,-0.661 -1.728,-3.016 -2.863,-3.016C-3.998,-3.016 -5.727,-0.661 -5.727,3.083C-5.727,5.066 -4.659,5.828 -2.863,5.828C-1.067,5.828 0,5.066 0,3.083M-3.71,8.844C-7.133,8.844 -8.471,6.387 -8.471,3.456C-8.471,-0.898 -6.032,-5.761 -2.863,-5.761C0.305,-5.761 2.745,-0.898 2.745,3.456C2.745,6.387 1.407,8.844 -2.016,8.844L-3.71,8.844Z" style="fill:rgb(40,40,40);fill-rule:nonzero;"/>
        </g>
        <g transform="matrix(1,0,0,1,832.629,182.936)">
            <path d="M0,14.01C-0.898,14.044 -0.627,13.451 -0.712,10.012C-0.712,7.742 0.22,-0.086 0.711,-0.086L3.405,-0.086C3.524,-0.086 3.727,-0.053 3.727,0.253C3.727,0.626 1.762,4.269 1.762,8.945C1.762,11.283 2.779,11.842 3.71,11.842C5.269,11.842 6.218,10.401 6.641,10.401C6.964,10.401 7.624,13.672 7.624,13.757C7.624,14.096 7.099,14.01 6.896,14.01L0,14.01Z" style="fill:rgb(40,40,40);fill-rule:nonzero;"/>
        </g>
    </g>
</svg>
