<svg xmlns="http://www.w3.org/2000/svg" viewBox="0 0 360 320"><defs><style>.a{fill:#fffced;}.a,.b,.c,.d,.e,.f{stroke:#282828;}.b{fill:#faf9f2;}.c{fill:#f6f4e5;}.d{fill:none;}.e{fill:#fff6b1;}.f{fill:#fdc800;}.g{fill:#282828;}</style></defs><title>edition-tirol-logo</title><path class="a" d="M166.36,236.74l14.33,19.49c6.09,16.73,11.94,11.06,11.94,11.06,7.19-3.68,7.86-13.8,7.86-13.8l4.24-25.26,14.94-19.94c10.81,1.43,17.38-.32,17.38-0.32,9.54-1.3,23.39-12.88,23.39-12.88,7.81-6.28-6-9-6-9-5.24-1.74-32.49.36-32.49,0.36V175.26l-34.17-30.64c-8.26-9.88-18-1.3-18-1.3l-27.92,16.75-21.21,1.2c-14,.54-18,3.53-18,3.53-2.88,2.72-12,3.79-12,3.79C72.29,171,68.27,177,68.27,177c-9.65,10.34,5.55,10.67,5.55,10.67,10.37,1.25,26.12,8.07,26.12,8.07C119.21,206.22,142,200.6,142,200.6s48.26-21.52,4.19,14.54L121.79,217s-29.64,7.81-40.2,24.12c0,0-4.83,6-2.53,11.26,0,0,2.76,9,16.54-.23A40.61,40.61,0,0,1,125,247.77s28.49,4.37,35.61-11h5.74Z"></path><path class="b" d="M153.62,223.09s-10.31,6.6-31.41,2c0,0-15.12-1.27-25.69,1.65,0,0-13.33-1.49-8.27-8.25,0,0,11-13.55,44.57-20,0,0,13.21-1.77,14.36-1.54l22.58-20.33s-26.52,5.12-45.8-34c0,0-8.44-20.54-8.17-38.46,0,0,.71-14.39,11.51-5.65,0,0,6.33,9.19,8.05,13.62a54,54,0,0,0,22.82,21.31s20.91,8.34,13.88,25.86l3.62,9.16,10.5-4.05s-9.31-13.77,11.17-42.46A142.54,142.54,0,0,0,207,99.61s3-9.31,9.36-11.67c0,0,9.59-4.73,8.07,7.07,0,0-2.35,18.23-3.77,21.63,0,0-1.07,6.41.82,9.61,0,0,5.23,14.46.46,26.41,0,0-5.83,13-14.95,16.84l2.82,12,1.14,28.19s28.82-8,39.79-.58l25.86,19.64s7.44,5.68,13.63,8.21c0,0,6.13,3.13,4.44,6.16,0,0-.33,3.44-7.9,3.46a118.14,118.14,0,0,1-20.68.76s-8.19-.54-12.93.16c0,0-10.3,1.6-49.36-24.87L185,237.28s-4.5-.8-4.68,16.22c0,0,4.67,14.46-2.47,24.58,0,0-4.64,6.9-6.92,20.46,0,0-1.69,12.45-8.53,17,0,0-8.52,8.05-9.19-2.88,0,0,2.19-25.58-5.78-36.51,0,0-12.94-16.26,9-45.51l4.68-4.76-3.21-4.78Z"></path><path class="c" d="M195.54,176s28.95-24.31,50.89-25.78c0,0,18.48-2.41,26.64-8.83,0,0,10.79-7,16.37-1.67,0,0,3.82,2.22-2.84,9.34,0,0-6.26,6.16-14.22,15.25,0,0-18.52,33.87-69.39,26.39l-2.5,22.14s11.3,17.88,23.27,25.15c0,0,10,12.21,11,24.21,0,0,1.78,13.9,8.28,21.91,0,0,7.86,14.82,4.16,17.47,0,0-8.17,6.93-19.92-9.3a130.2,130.2,0,0,0-19.9-18.59s-16.38-8.7-14.68-51Z"></path><path class="d" d="M135.35,134.07s14.06,27.6,31,31.79H203a53.57,53.57,0,0,1,2.36-21.6s6.95-16.34,5.57-21.54"></path><path class="d" d="M250.72,165.85s-17.17,19.43-58,5.19l-6.53,37.26s26.53,0.33,76.19,26"></path><path class="d" d="M99.94,180.1s14-3,25.07,1.42c0,0,26.39,7,31,1.92l14,8.42s-7.83,26.13-42.75,21.6"></path><path class="d" d="M162.1,284.1s12.55-33.3,5.89-56.32l29.93-10.27S201.54,245,210.37,252c0,0,14.66,13.76,14.73,19.11"></path><circle class="e" cx="210.37" cy="205.47" r="17.68" transform="translate(-80.21 250.61) rotate(-53.15)"></circle><circle class="f" cx="210.37" cy="205.47" r="9.88" transform="translate(-80.21 250.6) rotate(-53.15)"></circle><circle class="e" cx="169.06" cy="223.2" r="17.67" transform="translate(-110.94 224.65) rotate(-53.15)"></circle><circle class="f" cx="169.06" cy="223.2" r="9.88" transform="translate(-110.94 224.63) rotate(-53.15)"></circle><circle class="e" cx="177.86" cy="174.68" r="17.68" transform="translate(-68.58 212.25) rotate(-53.15)"></circle><circle class="f" cx="177.86" cy="174.68" r="9.88" transform="translate(-68.58 212.26) rotate(-53.15)"></circle><circle class="e" cx="201.25" cy="183.93" r="22.35" transform="translate(-66.62 234.68) rotate(-53.15)"></circle><circle class="f" cx="201.25" cy="183.93" r="15.08" transform="translate(-66.62 234.68) rotate(-53.15)"></circle><circle class="e" cx="190.82" cy="215.62" r="24.43" transform="translate(-96.16 239.04) rotate(-53.16)"></circle><circle class="f" cx="191.26" cy="215.03" r="16.12" transform="matrix(0.6, -0.8, 0.8, 0.6, -95.51, 239.13)"></circle><circle class="e" cx="164.2" cy="196.59" r="22.35" transform="translate(-91.59 210.1) rotate(-53.15)"></circle><circle class="f" cx="164.2" cy="196.59" r="15.07" transform="translate(-91.59 210.1) rotate(-53.15)"></circle><path class="g" d="M44.57,152.29c-0.91,2.93-2.51,1.39-13.67-2.24C23.59,147.48-.54,135.63,0,134l7.56-21.49c0.23-.65.76-2.67,1.85-2.29,0.44,0.15,6.85,6.33,6.59,7-0.32.93-3.46,1.66-5.34,7-1.32,3.76-.49,8.53,4.75,10.37,1.15,0.4,3.19.88,3.72-.65,0.62-1.75-.59-6.52,1-11.1,0.23-.65,1.08-2.37,2-2,0.05,0,7.87,6.2,7.64,6.85s-2,2.23-2.76,4.36c-1,2.78-.38,7.52,5,9.42,4.36,1.54,8.33.35,9.94-4.22,1.9-5.4-.53-10-0.07-11.3,0.29-.82,10.79-1.23,11.33-1,1,0.36.34,1.65,0.11,2.3Z"></path><path class="g" d="M56.34,121.67c-0.8,1.21-.84,3.26-18.9-8.72C13.65,97.18,16.18,95.25,16.72,94.44l5.43-8.19c4.05-6.12,18.06-12.71,36.12-.74,8.33,5.52,12.79,14,6.34,23.69Zm-15-17c10.84,7.18,14.2,4.83,16,2.14S59.79,97.75,51.12,92c-11.9-7.89-21.18-5.17-23.26-2-2.24,3.37,3.53,8.17,6.57,10.17Z"></path><path class="g" d="M78.65,91.75c-1,1-1.45,3-16.88-12.18C41.43,59.53,44.28,58.12,45,57.42L49.35,53c0.53-.53,1.42-1.69,2.2-0.91,0.41,0.4,5.13,9.36,13.08,17.19A111.47,111.47,0,0,0,84.57,84.84c0.41,0.41.21,0.69-.16,1.06l-0.81.82Z"></path><path class="g" d="M97.88,74.88c-0.91.63-1.67,4-11.25-9.77-7.37-10.58-10-18.77-11.19-20.52-1-1.42-1.35-2.44-2.53-1.61-3.37,2.34-5.5,11.93-6.3,12.49-0.43.3-.53,0.65-1.46-0.68s-3.84-8.24-4.05-10.06c-0.15-1.23,5.06-7.4,11.46-11.86,7.64-5.32,15.84-8,17.39-5.78s2.27,8.21,1.75,8.58c-0.8.56-5.49-2-8.9,0.36-2.89,2,2.94,11.41,6,15.77C97.26,64,104,68.13,104.62,69c0.73,1-1.15,2-1.76,2.42Z"></path><path class="g" d="M119.91,61.82c-1.32.59-2.45,2.3-11.35-17.46C96.83,18.33,100,18,100.89,17.64l5.69-2.56c0.68-.31,1.93-1.06,2.38-0.06,0.24,0.53,1.41,10.58,6,20.75a111.32,111.32,0,0,0,13,21.74c0.24,0.53-.05.72-0.53,0.94l-1.05.47Z"></path><path class="g" d="M146.31,53.34c-11.39,2.53-17.67-4.65-19.84-14.42-3.22-14.5,1.3-32.49,11.85-34.84s22.27,12,25.49,26.54c2.17,9.76-.47,18.93-11.86,21.46Zm8.09-21.92c-2.77-12.47-10.27-19-14-18.19s-7.79,10-5,22.43c1.47,6.6,5.59,8.35,11.56,7S155.87,38,154.4,31.42Z"></path><path class="g" d="M195.17,49.24c-4-.22-0.21-3.6-8.21-22.33-0.66-1.6-5.21-11.58-7.06-11.68-1.44-.08-1.38,6.23-1.45,7.39-0.89,16.28,1.15,22.29,1,25.24,0,0.75-1.13.46-1.65,0.43L172.43,48c-1.44-.08-3.23.92-2-20.72C172-1.24,174.9,0,175.87,0l4.56,0.25c2.2,0.12,6.33,5,16,25.54a1.6,1.6,0,0,0,.92,1.09c0.58,0,.6-2.45.65-3.26,0.59-10.79-1.83-20.53-1.76-21.86,0-.81,1.3-0.57,2.4-0.5l4.38,0.24c1.27,0.07,4-.82,2.47,27.69-1.19,21.64-2.86,20.45-4.3,20.37Z"></path><path class="g" d="M234,59.86c-1-.46-4.27.59,2.69-14.66,5.35-11.72,11.07-18.14,12-20.08,0.72-1.58,1.42-2.41.11-3-3.73-1.7-13.06,1.34-14,.94-0.47-.22-0.83-0.13-0.16-1.6,0.74-1.63,5.14-7.5,6.6-8.61,1-.76,8.95.59,16,3.82,8.47,3.86,15,9.56,13.83,12-1.05,2.31-5.91,6.13-6.49,5.87-0.89-.41-1.06-5.75-4.84-7.49-3.21-1.46-8.32,8.34-10.53,13.18-6.17,13.51-6.3,21.46-6.73,22.4-0.53,1.16-2.3,0-3-.28Z"></path><path class="g" d="M256.49,72.16c-1.18-.83-3.22-0.93,9.25-18.66C282.17,30.15,284,32.73,284.83,33.3l5.11,3.59c0.61,0.43,1.89,1.12,1.27,2-0.34.47-8.4,6.6-14.82,15.73a110.88,110.88,0,0,0-12.1,22.23c-0.34.48-.65,0.32-1.08,0l-0.95-.66Z"></path><path class="g" d="M315.63,59.89c7.45,7.74,5.08,13.79,1.54,17.2-6.66,6.41-14.71,2.12-15.88,3.25s0.59,13.86-9.24,23.32c-0.46.44-.7,0.35-1.55-0.52L286,98.42c-0.72-.75-2.09-1.92-1.42-2.56,4.71-4.52,10-16,7.63-18.41-1.2-1.25-5.84-2.65-8.17-.4-3.16,3-7.39,10.07-7.68,10.35-0.71.68-1.5-.56-1.9-1l-4.65-4.83c-1-1-3-1.53,12.63-16.55C303,45.25,304.34,48.14,305,48.85ZM310,71c2.63-2.52,1.22-5.9-.94-8.15-3.65-3.79-6.62-4.14-13.79,2.84-0.87.84-2.5,2.48-1.3,3.73C295.31,70.85,306.15,74.7,310,71Z"></path><path class="g" d="M298.57,118.66c-5.59-10.24-.43-18.27,8.35-23.06,13-7.12,31.59-7.76,36.76,1.73s-5.39,24.74-18.43,31.86c-8.78,4.79-18.32,4.8-23.92-5.45Zm23.31,1.7c11.21-6.12,15.44-15.14,13.58-18.54s-11.73-4.72-22.94,1.39c-5.94,3.24-6.47,7.68-3.54,13.06S315.95,123.6,321.88,120.36Z"></path><path class="g" d="M310.48,142c-0.88-2.94,1.31-2.55,12.6-5.77,7.5-1.94,34.15-5.54,34.57-3.92l2.3,8.9a1,1,0,0,1-.84,1.35c-1.24.32-14.94-3.06-30.39,0.93-7.72,2-8.7,5.83-7.91,8.91,1.33,5.15,6.89,7.06,7.26,8.45,0.27,1.06-10,6-10.24,6.11-1.12.29-1.29-1.52-1.46-2.19Z"></path></svg>
